<svg width="11" height="16" viewBox="0 0 11 16" fill="none" xmlns="http://www.w3.org/2000/svg">
<path d="M5.64909 0.0068469L5.75086 0C6.13056 0 6.44435 0.282154 6.49401 0.64823L6.50086 0.75L6.5 13.446L9.71945 10.2248C9.9856 9.95846 10.4023 9.93408 10.696 10.1518L10.7801 10.2244C11.0465 10.4905 11.0709 10.9072 10.8531 11.2009L10.7806 11.2851L6.28431 15.7851C6.01816 16.0514 5.6015 16.0758 5.3078 15.8581L5.22365 15.7855L0.719892 11.2855C0.426876 10.9927 0.426677 10.5179 0.719448 10.2248C0.985604 9.95846 1.40226 9.93408 1.69596 10.1518L1.78011 10.2244L5 13.442L5.00086 0.75C5.00086 0.370304 5.28301 0.0565093 5.64909 0.0068469L5.75086 0L5.64909 0.0068469Z" fill="#1F2329"/>
</svg>
