<svg width="11" height="16" viewBox="0 0 11 16" fill="none" xmlns="http://www.w3.org/2000/svg">
<path d="M0.719653 4.71474L5.21441 0.219687C5.48047 -0.0463891 5.89676 -0.0707979 6.19038 0.146614L6.27451 0.219093L10.7794 4.71415C11.0726 5.00672 11.0731 5.4816 10.7805 5.77481C10.5145 6.04136 10.0979 6.06602 9.80406 5.84849L9.71986 5.77596L6.497 2.55911L6.49766 15.2549C6.49766 15.6346 6.21551 15.9484 5.84943 15.9981L5.74766 16.0049C5.36797 16.0049 5.05417 15.7228 5.00451 15.3567L4.99766 15.2549L4.997 2.55711L1.78035 5.77537C1.51409 6.04164 1.09743 6.06586 0.803808 5.84802L0.719687 5.7754C0.453412 5.50914 0.429192 5.09248 0.647037 4.79886L0.719653 4.71474L5.21441 0.219687L0.719653 4.71474Z" fill="#1F2329"/>
</svg>
